<?xml version="1.0" standalone="no"?>
<!DOCTYPE svg PUBLIC "-//W3C//DTD SVG 20010904//EN"
 "http://www.w3.org/TR/2001/REC-SVG-20010904/DTD/svg10.dtd">
<svg version="1.0" xmlns="http://www.w3.org/2000/svg"
 width="300.000000pt" height="206.000000pt" viewBox="0 0 300.000000 206.000000"
 preserveAspectRatio="xMidYMid meet">
<metadata>
Created by potrace 1.10, written by Peter Selinger 2001-2011
</metadata>
<g transform="translate(0.000000,206.000000) scale(0.100000,-0.100000)"
fill="#000000" stroke="none">
<path d="M1485 1795 c-15 -14 -25 -36 -25 -53 0 -27 -3 -28 -62 -39 -85 -14
-189 -57 -269 -109 l-67 -44 -170 0 c-94 0 -177 -3 -186 -6 -19 -7 -21 -45 -4
-62 9 -9 86 -12 286 -12 l274 0 21 26 c79 101 279 51 279 -70 0 -49 -25 -84
-75 -107 -75 -34 -162 -19 -204 35 l-21 26 -225 0 c-193 0 -226 -2 -238 -16
-18 -21 0 -48 35 -52 31 -4 31 -3 6 -52 l-20 -40 -193 0 c-199 0 -217 -3 -217
-42 0 -33 34 -38 280 -38 l241 0 33 33 c41 42 93 57 193 57 84 0 110 -11 97
-44 -5 -13 -23 -16 -99 -16 -92 0 -120 -9 -97 -32 6 -6 45 -10 89 -9 85 2 119
-11 107 -42 -5 -14 -20 -17 -94 -17 -64 0 -91 -4 -100 -15 -22 -27 0 -36 83
-35 108 2 104 2 111 -16 12 -32 -13 -44 -91 -44 -103 0 -158 16 -200 57 l-34
34 -112 -8 -112 -8 0 -30 c0 -25 4 -30 28 -33 26 -3 27 -5 27 -68 l0 -64 780
0 780 0 0 68 0 67 -165 -3 c-145 -3 -166 -1 -171 13 -9 23 7 36 56 42 45 6 60
24 40 48 -10 12 -42 15 -165 15 -123 0 -155 3 -165 15 -7 8 -10 21 -7 29 5 11
39 15 166 18 167 3 198 11 171 43 -7 8 -25 15 -39 15 -35 0 -70 25 -56 39 6 6
65 12 132 13 l123 3 -26 43 -25 42 -149 0 c-137 0 -150 2 -160 19 -14 27 -3
50 27 57 14 4 70 4 124 1 55 -3 99 -2 99 2 0 10 -118 122 -162 155 -79 57
-256 126 -325 126 -19 0 -23 5 -23 30 0 41 -39 80 -80 80 -19 0 -40 -9 -55
-25z m97 -67 c21 -45 30 -50 137 -77 46 -11 115 -38 153 -58 67 -38 157 -102
158 -114 0 -4 -32 -9 -70 -11 -56 -4 -76 -10 -95 -28 l-25 -23 -23 21 c-21 20
-55 27 -110 23 -25 -2 -67 -46 -67 -71 0 -12 13 -35 29 -51 37 -36 99 -40 138
-9 14 11 31 20 38 20 6 0 20 -9 30 -20 13 -15 31 -20 67 -20 53 0 57 -4 31
-33 -10 -10 -18 -33 -18 -51 l0 -31 -102 -3 c-99 -3 -103 -4 -127 -32 -28 -35
-25 -61 12 -90 21 -17 40 -20 123 -20 l99 0 -6 -38 c-5 -30 -2 -41 16 -57 19
-17 41 -21 164 -25 133 -5 141 -6 141 -25 0 -20 -7 -20 -735 -20 l-735 0 -6
40 c-3 22 -9 48 -14 58 -6 15 0 17 65 17 62 0 76 -4 106 -26 51 -39 100 -53
191 -54 73 0 84 3 112 26 33 28 39 52 19 84 -10 15 -10 22 0 32 15 15 16 50 0
66 -9 9 -9 18 0 37 17 37 15 49 -14 79 -25 24 -33 26 -114 26 -99 0 -135 -10
-202 -55 -33 -23 -54 -31 -72 -28 -14 3 -26 7 -26 9 0 2 10 22 21 44 15 28 19
50 15 70 l-5 30 172 0 172 0 53 -37 c41 -28 66 -38 107 -41 185 -15 288 170
156 281 -73 61 -179 63 -264 4 -45 -31 -62 -37 -105 -37 -56 0 -74 14 -46 36
43 33 185 95 259 114 82 20 99 32 117 83 15 42 57 34 80 -15z m212 -314 c19
-18 19 -20 6 -45 -11 -19 -68 -27 -104 -13 -21 8 -20 50 2 63 26 16 79 13 96
-5z"/>
<path d="M1505 1188 c-49 -28 -59 -81 -22 -116 49 -46 134 -36 163 19 13 26
13 32 -1 59 -24 46 -93 65 -140 38z m109 -50 c17 -27 -4 -52 -47 -56 -63 -5
-99 32 -65 66 19 19 98 11 112 -10z"/>
<path d="M2146 1134 c-12 -31 13 -44 86 -44 60 0 69 2 64 16 -3 9 -6 22 -6 30
0 22 -136 20 -144 -2z"/>
<path d="M242 663 c-57 -28 -77 -90 -45 -143 15 -27 34 -38 126 -74 42 -17 49
-42 13 -55 -25 -10 -88 0 -110 18 -17 14 -49 -19 -44 -45 6 -33 66 -64 124
-64 100 0 164 44 164 114 0 60 -36 94 -132 125 -44 15 -54 27 -38 46 15 18 55
19 100 4 26 -9 34 -9 41 2 16 25 5 63 -21 76 -36 18 -138 16 -178 -4z m35 -51
c-21 -23 -22 -51 -1 -80 19 -27 0 -31 -28 -5 -34 31 -14 103 29 103 14 0 14
-2 0 -18z m133 -160 c26 -33 25 -48 -6 -79 -30 -30 -43 -24 -20 9 22 30 20 41
-9 76 -23 28 -24 30 -5 25 11 -3 29 -17 40 -31z"/>
<path d="M1284 667 c-2 -7 -3 -89 -2 -182 l3 -170 48 -3 47 -3 0 175 c0 163
-1 176 -19 186 -27 14 -71 13 -77 -3z m56 -176 c0 -69 -4 -122 -10 -126 -6 -4
-10 38 -10 119 0 77 4 126 10 126 6 0 10 -46 10 -119z"/>
<path d="M1625 666 c-17 -7 -36 -20 -43 -29 -21 -25 -26 -81 -9 -114 15 -28
33 -39 130 -77 42 -17 49 -42 13 -55 -25 -10 -88 0 -110 18 -20 17 -50 -21
-42 -54 9 -33 58 -55 126 -55 93 0 160 48 160 116 0 48 -40 89 -112 115 -62
23 -82 44 -57 60 14 10 74 6 116 -6 16 -5 23 -2 28 14 9 31 -2 56 -31 69 -33
16 -132 14 -169 -2z m32 -54 c-21 -23 -22 -51 -1 -80 19 -27 0 -31 -28 -5 -34
31 -14 103 29 103 14 0 14 -2 0 -18z m125 -145 c9 -7 20 -25 23 -40 5 -20 1
-32 -20 -53 -32 -31 -44 -25 -21 11 16 25 16 28 -3 61 -21 35 -11 45 21 21z"/>
<path d="M2027 673 c-11 -11 -8 -323 3 -344 8 -14 21 -19 55 -19 l45 0 0 70 0
70 58 0 57 0 -3 -55 c-5 -70 7 -85 64 -85 l44 0 0 169 c0 193 -4 204 -69 199
l-36 -3 0 -73 0 -72 -57 0 -58 0 0 65 c0 53 -3 66 -19 75 -22 11 -74 14 -84 3z
m63 -100 c0 -24 8 -45 22 -60 l21 -23 -21 -23 c-12 -13 -22 -36 -22 -53 0 -16
-4 -35 -9 -42 -12 -20 -23 106 -15 183 7 68 24 80 24 18z m220 -83 c0 -65 -4
-121 -9 -124 -9 -6 -21 26 -21 58 0 11 -10 30 -22 43 l-21 23 21 23 c14 15 22
36 22 58 0 20 3 39 6 42 18 18 24 -15 24 -123z"/>
<path d="M2570 667 c-25 -12 -25 -14 -28 -165 -1 -94 2 -160 8 -172 8 -15 21
-20 56 -20 l45 0 -2 57 c-4 80 18 83 62 9 40 -67 76 -87 114 -62 33 22 32 33
-10 85 -19 24 -35 46 -35 48 0 2 12 14 26 27 38 32 45 109 13 150 -12 16 -37
35 -55 42 -42 17 -161 18 -194 1z m60 -41 c0 -8 -4 -18 -10 -21 -18 -11 -11
-91 9 -116 19 -23 19 -25 1 -44 -10 -11 -23 -36 -28 -55 -8 -28 -10 -7 -11
102 -1 134 1 144 32 147 4 1 7 -5 7 -13z m142 -13 c30 -34 31 -61 4 -109 -30
-54 -31 -65 -10 -105 26 -50 9 -43 -31 13 -24 33 -33 54 -26 56 7 2 23 15 37
28 28 29 32 73 8 109 -19 29 -5 34 18 8z m-47 -33 c15 -17 16 -24 7 -45 -9
-20 -19 -25 -49 -25 l-38 0 0 45 c0 44 1 45 31 45 18 0 38 -8 49 -20z"/>
<path d="M624 655 c-7 -18 9 -117 38 -239 21 -84 24 -89 56 -103 25 -10 45
-12 71 -6 38 9 38 9 64 108 l13 50 18 -72 c17 -67 20 -73 51 -83 47 -15 97 -1
113 33 20 41 53 226 50 277 l-3 45 -46 3 -46 3 -12 -89 c-6 -48 -11 -104 -11
-123 0 -71 -17 -60 -39 28 -12 48 -25 91 -29 95 -8 7 -45 12 -79 10 -19 -2
-24 -13 -38 -79 -20 -95 -26 -115 -30 -111 -2 2 -11 57 -20 123 -10 66 -22
126 -27 133 -15 18 -87 16 -94 -3z m80 -127 c12 -104 48 -165 82 -137 14 11
15 10 12 -11 -4 -34 -61 -41 -78 -10 -14 27 -50 187 -49 225 0 54 26 2 33 -67z
m351 38 c-13 -83 -38 -191 -48 -203 -20 -27 -77 -9 -77 24 0 11 4 11 20 1 33
-21 59 15 70 98 16 116 21 135 31 128 6 -3 8 -23 4 -48z m-167 -43 c25 -67 24
-73 -7 -54 -9 6 -22 6 -33 0 -15 -8 -18 -6 -18 10 0 32 18 71 34 71 7 0 18
-12 24 -27z"/>
</g>
</svg>
